<svg xmlns="http://www.w3.org/2000/svg" version="1.1" xmlns:xlink="http://www.w3.org/1999/xlink" xmlns:svgjs="http://svgjs.dev/svgjs" viewBox="0 0 1422 800"><defs><filter id="uuunion-blur" x="-100%" y="-100%" width="400%" height="400%" color-interpolation-filters="sRGB">
        <feGaussianBlur in="SourceGraphic" stdDeviation="7.5 0" result="blur"></feGaussianBlur>
        <feDropShadow stdDeviation="12.307692307692308" in="blur" dx="10" dy="10" flood-color="hsl(331, 90%, 56%)" flood-opacity="0.25" x="0%" y="0%" width="100%" height="100%"></feDropShadow>
      </filter><filter id="uuunion-blur2" x="-100%" y="-100%" width="400%" height="400%" color-interpolation-filters="sRGB">
        <feGaussianBlur in="SourceGraphic" stdDeviation="7.5 0" result="blur"></feGaussianBlur>
        <feDropShadow stdDeviation="12.307692307692308" in="blur" dx="-10" dy="-10" flood-color="hsl(331, 90%, 56%)" flood-opacity="0.25" x="0%" y="0%" width="100%" height="100%"></feDropShadow>
      </filter><linearGradient gradientTransform="rotate(0, 0.5, 0.5)" x1="50%" y1="0%" x2="50%" y2="100%" id="uuunion-grad"><stop stop-color="hsl(206, 75%, 49%)" offset="10%"></stop><stop stop-color="hsl(331, 90%, 56%)" offset="90%"></stop></linearGradient><linearGradient gradientTransform="rotate(135, 0.5, 0.5)" x1="50%" y1="0%" x2="50%" y2="100%" id="uuunion-grad2"><stop stop-color="hsl(206, 75%, 49%)" offset="25%"></stop><stop stop-color="hsl(331, 90%, 56%)" offset="100%"></stop></linearGradient><linearGradient gradientTransform="rotate(333, 0.5, 0.5)" x1="50%" y1="0%" x2="50%" y2="100%" id="uuunion-grad3"><stop stop-color="hsl(206, 75%, 49%)" offset="0%"></stop><stop stop-color="hsl(331, 90%, 56%)" offset="75%"></stop></linearGradient></defs><path d="M-131.33 -76.85Q-118.35 -80.96 -105.37 -84.86 -92.38 -87.68 -79.4 -88.79 -66.42 -87.94 -53.44 -85.33 -40.45 -81.52 -27.47 -77.38 -14.49 -73.82 -1.51 -71.63 11.47 -71.31 24.45 -72.91 37.43 -76.09 50.41 -80.14 63.4 -84.16 76.38 -87.25 89.36 -88.73 102.34 -88.26 115.33 -85.96 128.31 -82.33 141.29 -78.18 154.27 -74.44 167.26 -71.93 180.24 -71.21 193.22 -72.45 206.2 -75.37 219.19 -79.32 232.17 -83.41 245.15 -86.75 258.13 -88.58 271.12 -88.51 284.1 -86.54 297.08 -83.11 310.07 -78.99 323.05 -75.1 336.03 -72.29 349.01 -71.2 362 -72.06 374.98 -74.69 387.96 -78.5 400.94 -82.64 413.93 -86.19 426.91 -88.37 439.89 -88.68 452.87 -87.06 465.86 -83.87 478.84 -79.82 491.82 -75.8 504.8 -72.72 517.79 -71.26 530.77 -71.74 543.75 -74.06 556.73 -77.69 569.72 -81.84 582.7 -85.58 595.68 -88.08 608.66 -88.77 621.65 -87.52 634.63 -84.59 647.61 -80.64 660.6 -76.55 673.58 -73.22 686.56 -71.4 699.54 -71.49 712.53 -73.47 725.51 -76.91 738.49 -81.03 751.47 -84.92 764.46 -87.71 777.44 -88.79 790.42 -87.91 803.4 -85.27 816.39 -81.46 829.37 -77.32 842.35 -73.77 855.33 -71.61 868.32 -71.32 881.3 -72.95 894.28 -76.15 907.27 -80.21 920.25 -84.22 933.23 -87.29 946.21 -88.73 959.2 -88.24 972.18 -85.91 985.16 -82.26 998.14 -78.12 1011.13 -74.38 1024.11 -71.9 1037.09 -71.22 1050.07 -72.49 1063.06 -75.43 1076.04 -79.38 1089.02 -83.47 1102.01 -86.79 1114.99 -88.6 1127.97 -88.49 1140.95 -86.49 1153.94 -83.05 1166.92 -78.93 1179.9 -75.04 1192.88 -72.26 1205.87 -71.2 1218.85 -72.09 1231.83 -74.74 1244.81 -78.56 1257.8 -82.7 1270.78 -86.24 1283.76 -88.39 1296.75 -88.67 1309.73 -87.02 1322.71 -83.81 1335.69 -79.75 1348.68 -75.75 1361.66 -72.69 1374.64 -71.25 1387.62 -71.76 1400.61 -74.11 1413.59 -77.76 1426.57 -81.91 1439.55 -85.63 1452.54 -88.1 1465.52 -88.77 1478.5 -87.48 1491.49 -84.53 1504.47 -80.57 1517.45 -76.48 1530.43 -73.18 1532.56 -58 1537.11 -42.83 1543.73 -27.65 1551.93 -12.48 1561.06 2.68 1570.44 17.86 1579.33 33.03 1587.07 48.21 1593.05 63.38 1596.82 78.56 1598.09 93.73 1596.76 108.91 1592.93 124.08 1586.91 139.25 1579.13 154.43 1570.22 169.6 1560.84 184.78 1551.72 199.95 1543.55 215.13 1536.97 230.3 1532.48 245.47 1530.41 260.65 1530.94 275.82 1534.02 291 1539.41 306.17 1546.7 321.35 1555.33 336.52 1564.64 351.69 1573.92 366.87 1582.45 382.04 1589.58 397.22 1594.77 412.39 1597.61 427.57 1597.89 442.74 1595.59 457.91 1590.88 473.09 1584.12 488.26 1575.84 503.44 1566.66 518.61 1557.3 533.79 1548.46 548.96 1540.83 564.14 1534.99 579.31 1531.39 594.48 1530.31 609.66 1531.82 624.83 1535.81 640.01 1541.98 655.18 1549.86 670.36 1558.83 685.53 1568.21 700.7 1577.29 715.88 1585.36 731.05 1591.81 746.23 1596.14 761.4 1598.02 776.58 1597.31 791.75 1594.06 806.92 1588.52 822.1 1581.12 837.27 1572.42 852.45 1563.08 867.62 1553.84 882.8 1545.38 897.97 1532.25 889.25 1519.11 878.47 1505.97 868.03 1492.84 860.25 1479.7 856.86 1466.56 858.62 1453.42 865.13 1440.29 874.95 1427.15 885.89 1414.01 895.52 1400.88 901.7 1387.74 903.04 1374.6 899.26 1361.46 891.2 1348.33 880.64 1335.19 869.94 1322.05 861.48 1308.92 857.13 1295.78 857.87 1282.64 863.53 1269.51 872.86 1256.37 883.77 1243.23 893.84 1230.09 900.83 1216.96 903.19 1203.82 900.39 1190.68 893.05 1177.55 882.81 1164.41 871.94 1151.27 862.86 1138.14 857.6 1125 857.31 1111.86 862.08 1098.72 870.82 1085.59 881.61 1072.45 892.04 1059.31 899.79 1046.18 903.13 1033.04 901.33 1019.9 894.79 1006.77 884.95 993.63 874.01 980.49 864.4 967.35 858.26 954.22 856.96 941.08 860.78 927.94 868.87 914.81 879.44 901.67 890.13 888.53 898.57 875.4 902.87 862.26 902.09 849.12 896.39 835.98 887.05 822.85 876.13 809.71 866.08 796.57 859.12 783.44 856.8 770.3 859.64 757.16 867.01 744.03 877.27 730.89 888.13 717.75 897.18 704.62 902.41 691.48 902.66 678.34 897.86 665.2 889.09 652.07 878.29 638.93 867.88 625.79 860.16 612.66 856.85 599.52 858.69 586.38 865.27 573.25 875.13 560.11 886.06 546.97 895.65 533.83 901.76 520.7 903.02 507.56 899.16 494.42 891.04 481.29 880.47 468.15 869.78 455.01 861.37 441.88 857.1 428.74 857.92 415.6 863.66 402.47 873.02 389.33 883.94 376.19 893.98 363.05 900.91 349.92 903.19 336.78 900.3 323.64 892.9 310.51 882.63 297.37 871.78 284.23 862.75 271.1 857.55 257.96 857.35 244.82 862.19 231.69 870.98 218.55 881.78 205.41 892.19 192.27 899.88 179.14 903.15 166 901.26 152.86 894.65 139.73 884.78 126.59 873.84 113.45 864.27 100.32 858.2 87.18 856.98 74.04 860.87 60.91 869.02 47.77 879.61 34.63 890.29 21.49 898.67 8.36 902.9 -4.77 902.04 -17.91 896.27 -31.04 886.88 -44.18 875.96 -57.32 865.94 -70.45 859.04 -83.59 856.81 -96.73 859.73 -109.86 867.16 -130.93 875.33 -141.83 858.13 -144.83 843.05 -147.63 827.97 -150.01 812.89 -151.79 797.81 -152.83 782.73 -153.06 767.65 -152.45 752.57 -151.06 737.49 -148.99 722.41 -146.39 707.33 -143.48 692.25 -140.46 677.17 -137.58 662.09 -135.05 647.01 -133.06 631.93 -131.78 616.85 -131.29 601.76 -131.64 586.68 -132.8 571.6 -134.68 556.52 -137.13 541.44 -139.97 526.36 -142.98 511.28 -145.93 496.2 -148.59 481.12 -150.76 466.04 -152.28 450.96 -153.02 435.88 -152.93 420.8 -152.01 405.72 -150.35 390.64 -148.05 375.56 -145.31 360.48 -142.33 345.4 -139.33 330.32 -136.56 315.24 -134.22 300.16 -132.48 285.07 -131.5 269.99 -131.33 254.91 -131.99 239.83 -133.43 224.75 -135.55 209.67 -138.17 194.59 -141.11 179.51 -144.12 164.43 -146.99 149.35 -149.49 134.27 -151.42 119.19 -152.65 104.11 -153.08 89.03 -152.67 73.95 -151.46 58.87 -149.54 43.79 -147.05 28.71 -144.19 13.63 -141.18 -1.44 -138.24 -16.53 -135.61 -31.61 -133.48 -46.69 -132.01 -61.77 -131.33 -76.85" fill="url(#uuunion-grad)"></path><path d="M-131.34 -76.84Q-132.02 -61.76 -133.49 -46.68 -135.62 -31.6 -138.25 -16.52 -141.19 -1.44 -144.2 13.63 -147.06 28.71 -149.55 43.79 -151.47 58.87 -152.68 73.95 -153.09 89.03 -152.66 104.11 -151.43 119.19 -149.5 134.27 -147 149.35 -144.13 164.43 -141.12 179.52 -138.18 194.6 -135.56 209.68 -133.44 224.76 -132 239.84 -131.34 254.92 -131.51 270 -132.49 285.08 -134.23 300.16 -136.57 315.24 -139.34 330.32 -142.34 345.4 -145.32 360.48 -148.06 375.56 -135.68 393.43 -115.63 387.43 -106.53 384.96 -97.44 384 -88.34 384.64 -79.24 386.81 -70.14 390.3 -61.04 394.75 -51.95 399.73 -42.85 404.74 -33.75 409.27 -24.65 412.88 -7.46 415.77 -4.42 415.95 7.11 411.11 18.65 404.08 30.19 395.47 41.73 386.15 53.26 377.07 64.79 369.15 76.3 363.13 87.8 359.45 99.28 358.16 110.74 358.99 122.19 361.3 133.6 364.24 145 366.87 156.36 368.32 167.7 367.87 179 365.12 190.28 360.04 201.52 352.93 212.73 344.43 223.9 335.38 235.04 326.68 246.15 319.21 257.23 313.63 268.27 310.3 279.28 309.24 290.25 310.12 301.2 312.3 312.11 314.97 323 317.21 333.86 318.21 344.7 317.34 355.52 314.25 366.31 308.96 377.09 301.82 387.85 293.46 398.6 284.69 409.34 276.39 420.07 269.36 430.8 264.19 441.52 261.18 452.25 260.31 462.98 261.21 473.72 263.24 484.47 265.61 495.24 267.46 506.02 268.03 516.82 266.75 527.64 263.35 538.49 257.9 549.37 250.75 560.28 242.56 571.22 234.09 582.2 226.19 593.22 219.59 604.28 214.81 615.38 212.1 626.52 211.37 637.71 212.25 648.94 214.11 660.23 216.16 671.56 217.61 682.94 217.76 694.37 216.1 705.84 212.43 717.37 206.85 728.95 199.74 740.57 191.73 752.24 183.59 763.96 176.09 775.72 169.9 787.52 165.48 799.37 163.03 811.25 162.41 823.17 163.24 835.12 164.89 847.1 166.62 859.1 167.67 871.13 167.41 883.18 165.4 895.25 161.5 907.33 155.82 919.41 148.78 931.5 140.99 943.59 133.18 955.68 126.08 967.76 120.28 979.82 116.2 991.86 113.97 1003.88 113.43 1015.88 114.17 1027.84 115.59 1039.77 116.98 1051.65 117.64 1063.49 116.99 1075.28 114.67 1087.02 110.55 1098.7 104.82 1110.31 97.88 1121.87 90.33 1133.35 82.86 1144.76 76.15 1156.1 70.73 1167.36 66.96 1178.53 64.91 1189.63 64.41 1200.64 65.04 1211.57 66.21 1222.41 67.25 1233.16 67.52 1243.82 66.51 1254.39 63.89 1264.88 59.61 1275.27 53.85 1285.58 47.04 1295.8 39.75 1305.94 32.64 1315.99 26.3 1325.96 21.24 1335.86 17.75 1345.67 15.85 1355.42 15.36 1365.1 15.84 1374.72 16.74 1384.27 17.43 1393.77 17.33 1403.22 15.97 1412.63 13.09 1422 8.67 1412.39 -9.05 1403.78 -26.77 1397.08 -44.5 1392.96 -62.23 1391.87 -79.96 1393.91 -97.68 1398.88 -115.41 1406.25 -133.14 1394.11 -132.12 1381.97 -132.6 1369.82 -134.49 1357.68 -137.42 1345.54 -140.84 1333.39 -144.11 1321.25 -146.59 1309.1 -147.81 1296.96 -147.55 1284.82 -145.85 1272.67 -143.04 1260.53 -139.65 1248.38 -136.32 1236.24 -133.69 1224.1 -132.26 1211.95 -132.31 1199.81 -133.81 1187.67 -136.49 1175.52 -139.84 1163.38 -143.22 1151.23 -145.98 1139.09 -147.61 1126.95 -147.78 1114.8 -146.48 1102.66 -143.94 1090.51 -140.65 1078.37 -137.23 1066.23 -134.35 1054.08 -132.53 1041.94 -132.14 1029.8 -133.24 1017.65 -135.63 1005.51 -138.84 993.36 -142.28 981.22 -145.28 969.08 -147.28 956.93 -147.89 944.79 -147 932.64 -144.77 920.5 -141.64 908.36 -138.19 896.21 -135.09 884.07 -132.92 871.93 -132.1 859.78 -132.78 847.64 -134.83 835.49 -137.86 823.35 -141.3 811.21 -144.5 799.06 -146.83 786.92 -147.87 774.77 -147.4 762.63 -145.53 750.49 -142.6 738.34 -139.18 726.2 -135.91 714.06 -133.42 701.91 -132.18 689.77 -132.43 677.62 -134.11 665.48 -136.92 653.34 -140.31 641.19 -143.64 629.05 -146.28 616.9 -147.72 604.76 -147.69 592.62 -146.2 580.47 -143.53 568.33 -140.18 556.19 -136.8 544.04 -134.03 531.9 -132.39 519.75 -132.2 507.61 -133.49 495.47 -136.02 483.32 -139.31 471.18 -142.72 459.03 -145.62 446.89 -147.45 434.75 -147.85 422.6 -146.77 410.46 -144.39 398.32 -141.18 386.17 -137.74 374.03 -134.73 361.88 -132.73 349.74 -132.1 337.6 -132.98 325.45 -135.19 313.31 -138.32 301.16 -141.76 289.02 -144.87 276.88 -147.05 264.73 -147.89 252.59 -147.23 240.45 -145.19 228.3 -142.16 216.16 -138.72 204.01 -135.52 191.87 -133.18 179.73 -132.13 167.58 -132.57 155.44 -134.43 143.3 -137.35 131.15 -140.77 119.01 -144.05 106.86 -146.55 94.72 -147.8 82.58 -147.57 70.43 -145.9 58.29 -143.11 46.14 -139.72 34 -136.38 21.86 -133.74 9.71 -132.28 -2.42 -132.29 -14.56 -133.77 -26.71 -136.43 -38.85 -139.77 -51 -143.15 -63.14 -145.94 -75.28 -147.59 -87.43 -147.79 -99.57 -146.52 -111.72 -144 -123.86 -140.72 -136 -137.3 -148.15 -134.4 -142.86 -119.87 -138.22 -105.44 -134.37 -91.1 -131.34 -76.84" fill="url(#uuunion-grad2)" filter="url(#uuunion-blur)"></path><path d="M1411.45 332.84Q1420.25 329.9 1429.06 325.97 1437.86 321.45 1446.67 316.78 1455.48 312.43 1464.28 308.84 1473.09 306.36 1481.89 305.24 1490.7 305.6 1499.51 307.4 1508.31 310.45 1517.12 314.46 1525.92 319.02 1534.73 323.68 1543.54 327.97 1552.34 331.46 1563.07 349.17 1573.92 366.87 1583.75 384.57 1591.55 402.28 1596.5 419.98 1598.09 437.68 1596.15 455.39 1590.88 473.09 1582.83 490.79 1572.85 508.5 1561.96 526.2 1551.31 543.9 1541.99 561.61 1534.99 579.31 1531.03 597.01 1530.52 614.72 1533.52 632.42 1539.71 650.12 1548.45 667.83 1558.83 685.53 1569.77 703.23 1580.12 720.94 1588.82 738.64 1594.96 756.34 1597.89 774.05 1597.31 791.75 1593.29 809.45 1586.24 827.16 1576.89 844.86 1566.22 862.56 1555.34 880.27 1545.38 897.97 1533.33 890.08 1521.28 880.3 1509.23 870.46 1497.18 862.41 1485.13 857.66 1473.08 857.1 1461.03 860.84 1448.98 868.18 1436.93 877.74 1424.88 887.71 1412.83 896.24 1400.78 901.72 1388.73 903.12 1376.68 900.18 1364.63 893.45 1352.58 884.2 1340.53 874.15 1328.48 865.2 1316.43 859.03 1304.38 856.8 1292.33 858.91 1280.28 864.99 1268.23 873.88 1256.18 883.92 1244.13 893.22 1232.08 900.04 1220.03 903.1 1207.98 901.82 1195.93 896.44 1183.88 887.98 1171.83 878.01 1159.78 868.42 1147.73 861 1135.68 857.15 1123.63 857.58 1111.58 862.23 1099.53 870.2 1087.48 880.02 1075.43 889.83 1063.38 897.79 1051.33 902.42 1039.28 902.83 1027.23 898.96 1015.18 891.53 1003.13 881.93 991.08 871.97 979.03 863.52 966.98 858.16 954.93 856.89 942.88 859.97 930.83 866.8 918.78 876.11 906.73 886.15 894.68 895.03 882.63 901.09 870.58 903.19 858.53 900.94 846.48 894.75 834.43 885.8 822.38 875.75 810.33 866.5 798.28 859.79 786.23 856.86 774.18 858.28 762.13 863.78 750.08 872.32 738.03 882.3 725.98 891.85 713.93 899.17 701.88 902.89 689.83 902.32 677.78 897.56 665.73 889.49 653.68 879.65 641.63 869.87 629.58 861.99 617.53 857.49 605.48 857.22 593.43 861.22 581.38 868.74 569.33 878.38 557.28 888.32 545.23 896.7 533.18 901.94 521.13 903.06 509.08 899.86 497.03 892.92 484.98 883.56 472.93 873.53 460.88 864.71 448.83 858.76 436.78 856.8 424.73 859.19 412.68 865.49 400.63 874.51 388.58 884.56 376.53 893.75 364.48 900.36 352.43 903.15 340.38 901.59 328.33 895.98 316.28 887.37 304.23 877.37 292.18 867.87 280.13 860.64 268.08 857.05 256.03 857.76 243.98 862.65 231.93 870.79 219.88 880.66 207.84 890.41 195.79 898.2 183.74 902.57 171.69 902.71 159.64 898.58 147.59 890.97 135.54 881.29 123.49 871.37 111.44 863.07 99.39 857.95 87.34 856.96 75.29 860.3 63.24 867.34 51.19 876.75 39.14 886.77 27.09 895.52 8.43 897.19 0.55 882.88 -0.76 872.73 -2.09 862.58 -3.38 852.43 -4.58 842.28 -5.88 827.06 -5.58 822 6.71 813.5 19.12 801.18 31.65 786.23 44.28 770.38 57 755.52 69.8 743.31 82.67 734.9 95.6 730.68 108.56 730.2 121.55 732.32 134.55 735.38 147.55 737.54 160.53 737.18 173.48 733.17 186.4 725.11 199.26 713.38 212.06 699.08 224.79 683.82 237.45 669.36 250.03 657.3 262.54 648.74 274.98 644.11 287.34 643.05 299.64 644.51 311.87 646.98 324.05 648.73 336.19 648.21 348.3 644.33 360.39 636.65 372.47 625.49 384.57 611.85 396.68 597.18 408.83 583.15 421.03 571.26 433.29 562.59 445.62 557.59 458.04 555.97 470.55 556.79 483.17 558.66 495.89 559.97 508.72 559.26 521.66 555.47 534.71 548.14 547.86 537.53 561.12 524.52 574.47 510.46 587.91 496.87 601.41 485.19 614.97 476.46 628.57 471.12 642.19 468.96 655.81 469.16 669.42 470.42 682.99 471.28 696.51 470.34 709.94 466.6 723.28 459.59 736.5 449.5 749.58 437.11 762.52 423.65 775.28 410.53 787.87 399.1 800.27 390.33 812.47 384.7 822.28 385.97 832.07 388.75 841.85 392.57 851.62 396.82 861.37 400.83 871.12 403.99 880.84 405.77 890.56 405.81 900.26 403.96 909.94 400.3 919.62 395.13 929.28 388.9 938.92 382.22 948.55 375.73 958.16 370.07 967.76 365.74 977.34 363.12 986.91 362.37 996.46 363.41 1006 365.98 1015.52 369.62 1025.03 373.73 1034.52 377.68 1043.99 380.86 1053.45 382.73 1062.9 382.93 1072.32 381.28 1081.73 377.84 1091.13 372.88 1100.51 366.84 1109.88 360.3 1119.23 353.88 1128.56 348.2 1137.88 343.78 1147.18 341.01 1156.47 340.06 1165.75 340.89 1175.01 343.24 1184.25 346.69 1193.48 350.66 1202.7 354.55 1211.9 357.73 1221.09 359.68 1230.26 360.02 1239.43 358.57 1248.58 355.36 1257.71 350.61 1266.84 344.76 1275.95 338.35 1285.05 332 1294.14 326.32 1303.22 321.83 1312.29 318.92 1321.34 317.78 1330.39 318.39 1339.43 320.53 1348.46 323.78 1357.48 327.62 1366.49 331.43 1375.5 334.61 1384.49 336.63 1393.48 337.11 1402.47 335.84 1411.45 332.84" fill="url(#uuunion-grad3)" filter="url(#uuunion-blur2)"></path></svg>